<?xml version="1.0" encoding="UTF-8" standalone="no"?>
<!-- Created with Inkscape (http://www.inkscape.org/) -->

<svg
   xmlns:dc="http://purl.org/dc/elements/1.1/"
   xmlns:cc="http://creativecommons.org/ns#"
   xmlns:rdf="http://www.w3.org/1999/02/22-rdf-syntax-ns#"
   xmlns:svg="http://www.w3.org/2000/svg"
   xmlns="http://www.w3.org/2000/svg"
   xmlns:sodipodi="http://sodipodi.sourceforge.net/DTD/sodipodi-0.dtd"
   xmlns:inkscape="http://www.inkscape.org/namespaces/inkscape"
   width="100mm"
   height="35mm"
   viewBox="0 0 100 35"
   version="1.1"
   id="svg5403"
   inkscape:version="0.92.3 (2405546, 2018-03-11)"
   sodipodi:docname="logo-so-letras.svg">
  <defs
     id="defs5397">
    <clipPath
       id="clipPath540"
       clipPathUnits="userSpaceOnUse">
      <path
         inkscape:connector-curvature="0"
         id="path538"
         d="M 0,500 H 500 V 0 H 0 Z" />
    </clipPath>
  </defs>
  <sodipodi:namedview
     id="base"
     pagecolor="#ffffff"
     bordercolor="#666666"
     borderopacity="1.0"
     inkscape:pageopacity="0.0"
     inkscape:pageshadow="2"
     inkscape:zoom="0.7"
     inkscape:cx="421.00396"
     inkscape:cy="100.26086"
     inkscape:document-units="mm"
     inkscape:current-layer="layer1"
     showgrid="false"
     inkscape:window-width="1311"
     inkscape:window-height="713"
     inkscape:window-x="55"
     inkscape:window-y="27"
     inkscape:window-maximized="1" />
  <metadata
     id="metadata5400">
    <rdf:RDF>
      <cc:Work
         rdf:about="">
        <dc:format>image/svg+xml</dc:format>
        <dc:type
           rdf:resource="http://purl.org/dc/dcmitype/StillImage" />
        <dc:title></dc:title>
      </cc:Work>
    </rdf:RDF>
  </metadata>
  <g
     inkscape:label="Camada 1"
     inkscape:groupmode="layer"
     id="layer1"
     transform="translate(0,-262)">
    <g
       id="g534"
       transform="matrix(0.35277777,0,0,-0.35277777,-39.968777,325.69814)">
      <g
         clip-path="url(#clipPath540)"
         id="g536">
        <g
           transform="translate(257.0225,103.3848)"
           id="g542">
          <path
             id="path544"
             style="fill:#990000;fill-opacity:1;fill-rule:nonzero;stroke:none"
             d="M 0,0 C 0.461,0.135 0.879,0.821 1.256,2.063 V 3.648 L 1.004,4.123 v 6.024 l 0.252,0.476 v 4.44 l -0.252,0.476 v 5.866 l 0.252,0.474 v 4.44 l -0.252,0.476 v 6.023 l 0.252,0.478 v 4.437 l -0.252,0.478 v 0.633 c 0,0.107 0.043,0.159 0.127,0.159 0.082,1.163 0.459,1.742 1.129,1.742 h 2.135 l 0.376,0.318 h 2.512 c 0.524,-0.448 0.901,-1.134 1.129,-2.06 v -2.22 l -0.25,-0.475 v -6.976 l 0.25,-0.476 v -3.647 l -0.25,-0.475 v -6.66 l 0.25,-0.473 V 13.952 L 8.162,13.478 V 6.661 L 8.412,6.187 V 1.746 c 0,-0.899 0.545,-1.587 1.633,-2.061 h 0.879 c 0.209,0.315 1.34,0.474 3.39,0.474 h 1.508 c 1.004,0.53 1.506,1.217 1.506,2.062 0,3.065 -0.041,5.179 -0.125,6.342 0.084,1.954 0.125,3.857 0.125,5.706 0,2.223 -0.041,4.228 -0.125,6.026 0.084,1.798 0.125,3.646 0.125,5.549 0,2.245 -0.041,4.094 -0.125,5.549 0.084,1.639 0.125,3.54 0.125,5.707 0,2.009 -0.041,4.174 -0.125,6.502 0.084,1.03 0.125,2.457 0.125,4.278 0,2.96 -1.926,4.44 -5.775,4.44 H 10.17 L 9.795,52.638 H 9.166 c -0.146,0 -0.23,-0.107 -0.25,-0.318 -1.717,0 -2.93,-0.051 -3.643,-0.158 C 4.311,52.269 3.055,52.32 1.508,52.32 H 1.381 L 1.004,52.638 H 0.252 L -0.125,52.32 h -0.377 c -1.34,0 -2.135,-0.158 -2.387,-0.473 H -4.27 c -0.25,0.315 -1.046,0.473 -2.384,0.473 h -1.131 l -0.377,0.318 h -0.627 c -0.147,0 -0.231,-0.107 -0.252,-0.318 -1.715,0 -2.929,-0.051 -3.641,-0.158 -0.963,0.107 -2.219,0.158 -3.767,0.158 H -16.7 l -0.377,0.318 h -0.628 l -0.377,-0.318 -5.815,-0.103 c -3.028,-1.833 -4.019,-2.054 -0.463,-2.449 l 0.252,-3.949 -0.252,-0.475 v -0.793 l 0.252,-0.476 v -9.512 l -0.252,-0.476 v -1.108 l 0.252,-0.476 v -9.354 l -0.252,-0.475 v -0.795 l 0.252,-0.474 v -9.512 l -0.252,-0.476 v -1.11 l 0.252,-0.476 V 2.855 c 0,-0.581 -1.381,-1.825 -0.963,-2.618 0.754,-0.289 1.512,-0.213 2.766,-0.183 0.648,0 1.775,0.052 3.47,-0.054 l 1.045,-0.142 h 0.47 c 0.083,0 0.62,-0.121 0.62,-0.015 0.858,0 1.36,0.897 1.506,2.695 -0.083,0.926 -0.125,1.506 -0.125,1.744 0.084,2.774 0.125,4.412 0.125,4.915 l 0.252,0.475 v 2.221 c 0,0.185 -0.084,0.291 -0.252,0.317 0,0.977 -0.041,2.351 -0.125,4.121 0.084,1.955 0.125,3.382 0.125,4.282 l 0.252,0.473 v 2.063 c 0,0.184 -0.084,0.289 -0.252,0.316 0,1.138 -0.041,2.617 -0.125,4.44 0.084,1.743 0.125,3.065 0.125,3.964 l 0.252,0.474 v 2.22 c 0,0.186 -0.084,0.291 -0.252,0.319 0,1.057 -0.041,2.378 -0.125,3.962 l 0.377,1.428 1.758,0.791 h 3.893 c 0.773,-0.502 1.234,-1.029 1.381,-1.584 V 2.696 c 0,-1.453 0.377,-2.297 1.129,-2.537 h 0.629"
             inkscape:connector-curvature="0" />
        </g>
        <g
           transform="translate(297.0713,126.7861)"
           id="g546">
          <path
             id="path548"
             style="fill:#990000;fill-opacity:1;fill-rule:nonzero;stroke:none"
             d="M 0,0 -0.25,-0.377 V -5.148 L 0,-5.525 v -3.642 l -0.25,-0.376 v -3.642 c 0,-0.669 -0.42,-1.129 -1.256,-1.38 h -2.512 l -0.377,0.251 h -0.501 l -0.377,-0.251 H -5.65 c -0.084,0 -0.125,0.041 -0.125,0.125 -0.67,0.062 -1.172,0.355 -1.508,0.878 0,1.842 -0.041,4.061 -0.125,6.656 0,0.753 0.043,2.218 0.125,4.394 -0.082,2.408 -0.125,3.955 -0.125,4.647 0.084,2.845 0.125,4.771 0.125,5.775 0.23,0.503 0.65,0.879 1.256,1.13 h 3.14 l 0.375,-0.251 h 0.879 c 0.545,0 0.963,-0.251 1.256,-0.753 0.084,-1.8 0.127,-3.14 0.127,-4.018 V 3.893 L 0,3.516 Z m 8.539,15.57 c 0,1.026 -0.795,1.821 -2.387,2.386 h -0.25 c -1.695,0 -3.076,-0.042 -4.144,-0.126 -0.711,0.084 -1.924,0.126 -3.641,0.126 -0.125,0 -0.293,0.083 -0.502,0.251 h -0.629 c -0.146,0 -0.23,-0.084 -0.25,-0.251 -1.548,0 -2.804,-0.042 -3.767,-0.126 -1.047,0.084 -2.344,0.126 -3.893,0.126 -0.125,0 -0.293,0.083 -0.502,0.251 h -0.502 c -0.084,0 -0.127,-0.042 -0.127,-0.126 -1.191,-0.125 -2.07,-0.418 -2.636,-0.879 -1.256,-0.816 -1.883,-1.904 -1.883,-3.264 0,-0.398 0.041,-1.361 0.125,-2.888 l 0.252,-0.377 V 7.785 c 0,-0.168 -0.084,-0.251 -0.252,-0.251 -0.084,-1.549 -0.125,-2.512 -0.125,-2.888 0,-1.758 0.125,-2.763 0.377,-3.014 v -3.014 c -0.252,-0.271 -0.377,-1.192 -0.377,-2.762 0,-0.377 0.041,-1.339 0.125,-2.888 0.168,0 0.252,-0.083 0.252,-0.251 v -2.888 c 0,-0.168 -0.084,-0.251 -0.252,-0.251 -0.084,-1.549 -0.125,-2.512 -0.125,-2.889 0,-1.757 0.125,-2.761 0.377,-3.013 v -3.013 l -0.252,-0.377 v -0.879 c 0.713,-1.758 1.381,-2.636 2.01,-2.636 0.962,-0.189 1.589,-0.357 1.882,-0.503 h 2.135 c 0.272,0.251 1.193,0.377 2.764,0.377 0.586,0 1.799,-0.042 3.64,-0.126 0,-0.167 0.084,-0.251 0.252,-0.251 h 2.26 c 0.166,0 0.25,0.084 0.25,0.251 0.67,0 1.465,0.042 2.387,0.126 2.469,-0.084 4.142,-0.126 5.021,-0.126 h 0.252 c 1.674,0.732 2.512,2.072 2.512,4.018 0,1.591 -0.043,2.93 -0.125,4.018 0.082,1.841 0.125,3.474 0.125,4.897 0,1.716 -0.043,3.223 -0.125,4.521 0.082,1.298 0.125,2.636 0.125,4.017 0,1.78 -0.043,3.411 -0.125,4.898 0.082,1.298 0.125,2.804 0.125,4.52 0,1.005 -0.043,2.804 -0.125,5.4 0.082,0.544 0.125,1.088 0.125,1.631 -0.084,0.754 -0.209,1.131 -0.377,1.131"
             inkscape:connector-curvature="0" />
        </g>
        <g
           transform="translate(328.6807,126.7861)"
           id="g550">
          <path
             id="path552"
             style="fill:#990000;fill-opacity:1;fill-rule:nonzero;stroke:none"
             d="M 0,0 -0.25,-0.377 V -5.148 L 0,-5.525 v -3.642 l -0.25,-0.376 v -3.642 c 0,-0.669 -0.42,-1.129 -1.256,-1.38 h -2.512 l -0.377,0.251 h -0.501 l -0.377,-0.251 H -5.65 c -0.084,0 -0.125,0.041 -0.125,0.125 -0.67,0.062 -1.172,0.355 -1.508,0.878 0,1.842 -0.041,4.061 -0.125,6.656 0,0.753 0.041,2.218 0.125,4.394 -0.084,2.408 -0.125,3.955 -0.125,4.647 0.084,2.845 0.125,4.771 0.125,5.775 0.23,0.503 0.648,0.879 1.256,1.13 h 3.138 l 0.377,-0.251 h 0.879 c 0.545,0 0.963,-0.251 1.256,-0.753 0.084,-1.8 0.127,-3.14 0.127,-4.018 V 3.893 L 0,3.516 Z m 8.539,15.57 c 0,1.026 -0.795,1.821 -2.387,2.386 h -0.25 c -1.695,0 -3.076,-0.042 -4.144,-0.126 -0.711,0.084 -1.926,0.126 -3.641,0.126 -0.127,0 -0.293,0.083 -0.502,0.251 h -0.629 c -0.146,0 -0.23,-0.084 -0.25,-0.251 -1.548,0 -2.804,-0.042 -3.767,-0.126 -1.047,0.084 -2.344,0.126 -3.893,0.126 -0.125,0 -0.293,0.083 -0.502,0.251 h -0.502 c -0.084,0 -0.127,-0.042 -0.127,-0.126 -1.191,-0.125 -2.07,-0.418 -2.636,-0.879 -1.256,-0.816 -1.883,-1.904 -1.883,-3.264 0,-0.398 0.041,-1.361 0.125,-2.888 l 0.252,-0.377 V 7.785 c 0,-0.168 -0.084,-0.251 -0.252,-0.251 -0.084,-1.549 -0.125,-2.512 -0.125,-2.888 0,-1.758 0.125,-2.763 0.377,-3.014 v -3.014 c -0.252,-0.271 -0.377,-1.192 -0.377,-2.762 0,-0.377 0.041,-1.339 0.125,-2.888 0.168,0 0.252,-0.083 0.252,-0.251 v -2.888 c 0,-0.168 -0.084,-0.251 -0.252,-0.251 -0.084,-1.549 -0.125,-2.512 -0.125,-2.889 0,-1.757 0.125,-2.761 0.377,-3.013 v -3.013 l -0.252,-0.377 v -0.879 c 0.711,-1.758 1.381,-2.636 2.01,-2.636 0.962,-0.189 1.589,-0.357 1.882,-0.503 h 2.135 c 0.272,0.251 1.193,0.377 2.762,0.377 0.586,0 1.801,-0.042 3.642,-0.126 0,-0.167 0.084,-0.251 0.25,-0.251 h 2.262 c 0.166,0 0.25,0.084 0.25,0.251 0.67,0 1.465,0.042 2.387,0.126 2.469,-0.084 4.142,-0.126 5.021,-0.126 h 0.252 c 1.674,0.732 2.512,2.072 2.512,4.018 0,1.591 -0.043,2.93 -0.127,4.018 0.084,1.841 0.127,3.474 0.127,4.897 0,1.716 -0.043,3.223 -0.127,4.521 0.084,1.298 0.127,2.636 0.127,4.017 0,1.78 -0.043,3.411 -0.127,4.898 0.084,1.298 0.127,2.804 0.127,4.52 0,1.005 -0.043,2.804 -0.127,5.4 0.084,0.544 0.127,1.088 0.127,1.631 -0.084,0.754 -0.209,1.131 -0.377,1.131"
             inkscape:connector-curvature="0" />
        </g>
        <g
           transform="translate(368.4189,147.8271)"
           id="g554">
          <path
             id="path556"
             style="fill:#990000;fill-opacity:1;fill-rule:nonzero;stroke:none"
             d="M 0,0 0.25,0.377 V 2.009 L 0,2.386 V 3.265 C -0.209,5.19 -0.545,6.153 -1.006,6.153 -1.256,6.76 -2.01,7.262 -3.266,7.659 H -5.148 L -5.525,7.408 h -5.024 l -0.377,0.251 h -3.263 l -0.377,-0.251 h -5.024 l -0.375,0.251 h -2.889 c -0.187,-0.167 -0.48,-0.251 -0.878,-0.251 -0.922,0 -1.381,-0.669 -1.381,-2.009 V 5.022 c 0,-2.532 -0.043,-4.332 -0.127,-5.399 0.084,-1.548 0.127,-3.055 0.127,-4.519 0,-1.738 -0.043,-3.287 -0.127,-4.647 0.084,-1.423 0.127,-2.888 0.127,-4.395 0,-1.715 -0.043,-3.222 -0.127,-4.52 0.084,-1.423 0.127,-2.888 0.127,-4.395 0,-1.737 -0.043,-3.286 -0.127,-4.646 0.084,-1.423 0.127,-2.888 0.127,-4.395 0,-1.486 -0.043,-3.034 -0.127,-4.646 0.084,-1.066 0.127,-2.866 0.127,-5.398 v -0.377 c 0,-0.586 0.125,-1.214 0.377,-1.884 1.004,-0.084 1.506,-0.209 1.506,-0.377 0.314,0 1.361,-0.041 3.138,-0.125 0.127,0 0.293,-0.084 0.502,-0.251 h 1.383 c 0.752,0.251 1.129,0.418 1.129,0.502 0.502,0 0.754,0.586 0.754,1.758 v 3.139 c 0,0.147 0.084,0.23 0.252,0.251 0,0.984 0.041,1.989 0.125,3.014 -0.084,0.795 -0.125,1.549 -0.125,2.26 l -0.252,0.377 v 2.887 c 0,0.147 0.084,0.231 0.252,0.251 0,1.11 0.041,2.115 0.125,3.014 -0.084,0.796 -0.125,1.549 -0.125,2.261 0,0.125 -0.084,0.293 -0.252,0.502 v 3.138 c 0,0.148 0.084,0.231 0.252,0.252 0,0.984 0.041,1.988 0.125,3.014 -0.084,0.795 -0.125,1.548 -0.125,2.26 l -0.252,0.377 v 3.013 c 0,0.147 0.084,0.23 0.252,0.251 0,0.984 0.041,1.989 0.125,3.014 -0.084,0.795 -0.125,1.549 -0.125,2.26 l -0.252,0.377 v 3.138 c 0,0.084 0.041,0.126 0.125,0.126 0,0.775 0.377,1.445 1.131,2.009 1.695,0.084 2.867,0.126 3.515,0.126 h 0.502 c 1.172,0 1.885,-0.503 2.135,-1.507 v -39.929 c 0,-0.796 0.377,-1.382 1.131,-1.759 1.631,0 3.892,-0.041 6.779,-0.125 0.67,0.313 1.006,0.732 1.006,1.256 v 2.133 c 0,0.775 -0.043,1.487 -0.127,2.135 0.084,0.357 0.127,0.985 0.127,1.884 v 1.256 l 0.25,0.377 v 1.632 L 0,-33.651 v 1.506 c 0,0.775 -0.043,1.486 -0.127,2.135 0.084,0.356 0.127,0.984 0.127,1.883 v 1.005 l 0.25,0.377 v 1.632 L 0,-24.736 v 1.507 c 0,0.858 -0.043,1.527 -0.127,2.008 0.084,0.482 0.127,1.152 0.127,2.009 v 1.256 l 0.25,0.377 v 1.633 L 0,-15.57 v 1.382 c 0,0.774 -0.043,1.485 -0.127,2.134 0.084,0.356 0.127,0.984 0.127,1.883 v 1.005 l 0.25,0.377 v 1.632 L 0,-6.78 v 1.507 c 0,0.857 -0.043,1.527 -0.127,2.008 C -0.043,-2.783 0,-2.113 0,-1.256 Z"
             inkscape:connector-curvature="0" />
        </g>
        <g
           transform="translate(192.6133,132.0615)"
           id="g558">
          <path
             id="path560"
             style="fill:#ffffff;fill-opacity:1;fill-rule:nonzero;stroke:none"
             d="m 0,0 -0.26,-0.38 v -2.64 c -0.41,-0.5 -0.79,-0.75 -1.13,-0.75 -0.71,0 -2.13,0.041 -4.26,0.13 -0.09,0 -0.13,0.04 -0.13,0.12 -0.86,0 -1.32,0.5 -1.38,1.51 v 1.26 l -0.25,0.37 v 1.63 c 0.16,0.15 0.25,0.57 0.25,1.26 0,0.67 0.92,1 2.76,1 h 3.14 c 0.5,0 0.92,-0.33 1.26,-1 z m 8.91,7.41 c 0,3.51 -1.51,5.27 -4.52,5.27 -0.44,0 -1.99,-0.08 -4.65,-0.25 -0.43,0 -1.98,0.08 -4.64,0.25 -0.23,0 -1.65,-0.08 -4.27,-0.25 -1.19,0 -2.49,0.08 -3.89,0.25 -1.32,0 -2.28,-0.84 -2.89,-2.51 -0.23,-1.32 -0.4,-2.07 -0.5,-2.26 V 3.39 l 0.25,-0.38 v -3.39 l -0.25,-0.37 v -4.9 l 0.25,-0.38 v -3.51 l -0.25,-0.38 v -4.65 l 0.25,-0.369 v -3.401 l -0.25,-0.37 v -4.9 l 0.25,-0.38 v -0.75 c 0,-0.92 0.04,-1.38 0.12,-1.38 0,-1.069 0.59,-1.9 1.76,-2.51 0.9,-0.059 1.45,-0.19 1.63,-0.38 h 1.26 c 0.23,0 0.48,0.09 0.75,0.25 l 0.38,-0.25 h 8.29 c 0.16,0 0.25,0.09 0.25,0.25 l 0.37,-0.25 h 7.66 c 0.09,0 0.13,0.04 0.13,0.13 1.05,0 1.84,0.42 2.39,1.25 0.08,2.66 0.12,4.63 0.12,5.91 v 0.25 c -0.17,1 -0.92,1.5 -2.26,1.5 H 3.01 l -0.38,0.25 h -3.64 l -0.38,-0.25 h -4.14 c -0.08,0 -0.12,0.05 -0.12,0.13 -1.03,0 -1.62,0.71 -1.76,2.13 v 2.14 l 0.25,0.37 v 1.011 c 0,0.919 0.58,1.379 1.76,1.379 h 1.25 l 0.38,0.25 h 2.64 l 0.37,-0.25 h 5.53 l 0.37,0.25 h 0.38 c 0.82,0 1.49,0.17 2.01,0.5 0.25,0.11 0.67,0.69 1.26,1.76 0.08,3.35 0.12,5.861 0.12,7.54 v 0.37 c 0,1.38 -0.04,2.47 -0.12,3.27 0.08,0.69 0.12,1.73 0.12,3.141 z"
             inkscape:connector-curvature="0" />
        </g>
        <g
           transform="translate(221.4478,112.3457)"
           id="g562">
          <path
             id="path564"
             style="fill:#ffffff;fill-opacity:1;fill-rule:nonzero;stroke:none"
             d="M 0,0 C -0.837,0 -2.093,0.042 -3.767,0.126 -3.977,0.461 -4.144,0.628 -4.27,0.628 -4.353,1.36 -4.479,1.82 -4.646,2.009 V 6.78 l 0.251,0.377 v 2.888 l -0.251,0.377 v 5.399 l 0.251,0.377 v 2.888 l -0.251,0.377 V 22.1 c 0.314,0.754 0.732,1.129 1.255,1.129 H 0 L 0.376,23.48 H 1.507 C 2.113,23.229 2.532,22.812 2.762,22.226 V 22.1 c 0,-0.859 0.042,-1.528 0.126,-2.009 -0.084,-0.524 -0.126,-1.11 -0.126,-1.758 0,-0.126 -0.083,-0.293 -0.251,-0.503 v -3.892 l 0.251,-0.376 v -0.628 c 0,-0.775 0.042,-1.487 0.126,-2.135 C 2.804,10.359 2.762,9.857 2.762,9.292 2.762,9.166 2.679,8.999 2.511,8.79 V 5.022 L 2.762,4.646 V 3.893 c 0,-0.524 0.042,-1.152 0.126,-1.884 L 2.762,1.381 C 2.762,0.461 1.883,0 0.125,0 Z m 11.677,-6.404 v 44.953 m 0,4.707 C 9.814,43.172 6.927,43.194 5.776,43.194 H 3.641 C 3.055,42.86 2.679,42.399 2.511,41.813 v -0.878 l 0.251,-0.377 v -0.502 c 0,-0.775 0.042,-1.487 0.126,-2.135 -0.084,-0.398 -0.126,-0.942 -0.126,-1.632 0,-0.126 -0.083,-0.293 -0.251,-0.503 v -0.879 c 0,-1.298 -0.335,-2.135 -1.004,-2.511 H -9.417 c -0.524,0 -1.152,-0.042 -1.884,-0.125 -1.424,-0.502 -2.135,-1.423 -2.135,-2.763 0,-1.277 -0.042,-3.034 -0.126,-5.274 l -0.251,-0.377 v -0.878 c 0,-0.167 0.084,-0.251 0.251,-0.251 0.084,-2.051 0.126,-3.181 0.126,-3.391 0,-0.482 -0.042,-1.862 -0.126,-4.144 l -0.251,-0.377 v -0.753 c 0,-0.167 0.084,-0.25 0.251,-0.25 0,-0.586 0.042,-1.8 0.126,-3.642 0,-0.398 -0.042,-1.695 -0.126,-3.893 L -13.813,5.901 V 5.022 c 0,-0.167 0.084,-0.251 0.251,-0.251 0,-0.459 0.042,-1.631 0.126,-3.515 -0.084,-2.261 -0.126,-3.6 -0.126,-4.019 l -0.251,-0.376 v -0.754 l 0.251,-0.377 v -0.251 c 0,-1.673 0.168,-2.51 0.503,-2.51 0,-0.733 0.753,-1.361 2.26,-1.884 h 0.126 c 1.15,0 2.657,-0.042 4.52,-0.126 l 0.377,-0.251 h 1.758 c 0.167,0 0.251,0.084 0.251,0.251 0.774,0 1.862,0.042 3.265,0.126 1.443,-0.084 2.615,-0.126 3.516,-0.126 L 3.39,-9.292 h 1.507 c 0.167,0 0.251,0.084 0.251,0.251 2.553,0.084 5.818,0.107 6.529,0.107"
             inkscape:connector-curvature="0" />
        </g>
        <g
           transform="translate(161.1533,143.7852)"
           id="g566">
          <path
             id="path568"
             style="fill:#ffffff;fill-opacity:1;fill-rule:nonzero;stroke:none"
             d="m 0,0 c 0,-0.699 -0.002,-1.674 -0.004,-2.166 -0.002,-0.492 -0.004,-1.262 -0.004,-1.709 0,-0.446 -0.347,-1.15 -0.77,-1.564 l -0.33,-0.008 c -1.516,-0.037 -2.891,-0.027 -2.891,-0.027 -0.825,0.007 -1.645,0.022 -1.823,0.033 -0.178,0.011 -0.891,0.161 -1.584,0.236 -0.693,0.074 -0.737,1.837 -0.782,2.273 -0.045,0.436 -0.102,0.93 -0.125,1.098 -0.024,0.169 -0.044,0.678 -0.044,1.131 0,0.454 -0.008,1.103 -0.018,1.444 l 0.258,0.652 c 0.284,0.717 1.15,0.903 1.15,0.903 0.807,0.173 2.14,0.263 2.963,0.198 L -2.726,2.396 C -1.903,2.331 -1.027,2.203 -0.78,2.109 -0.533,2.016 0,0.698 0,0 m -1.2,-34.775 c 0,-0.481 0.418,-2.659 0.418,-2.659 0.155,-0.81 0.554,-1.965 0.886,-2.567 l 0.791,-0.323 c 0.346,-0.142 0.417,-0.143 0.417,-0.143 0.825,-0.011 1.593,-0.032 1.707,-0.048 l 1.356,-0.065 c 0.612,-0.03 1.35,-0.004 2.469,-0.032 0.83,0 1.34,0.077 1.34,0.077 0.815,0.123 1.342,0.885 1.17,1.691 l -0.458,2.162 c -0.172,0.807 -0.509,2.113 -0.749,2.903 l -0.96,3.156 c -0.241,0.79 -0.596,2.092 -0.791,2.894 l -2.338,7.473 c -0.238,0.79 -0.689,2.061 -1.002,2.824 0,0 -0.987,2.408 -1.539,3.834 -0.25,0.646 0.171,-0.781 0,0 -0.041,0.185 0.077,0.404 1.983,0.662 0.343,0.047 1.1,0.053 1.623,0.186 0.41,0.104 1.516,0.683 1.743,0.899 0.312,0.298 0.721,1.263 0.981,1.632 0.411,0.587 0.496,1.078 0.516,2.009 0.061,2.889 0.129,3.654 0.129,3.654 0.073,0.823 0.126,2.169 0.118,2.994 L 8.555,3.922 C 8.547,4.747 8.484,5.508 8.415,5.612 8.346,5.717 8.29,6.312 8.29,6.933 8.29,7.554 8.281,8.258 8.27,8.498 8.259,8.737 7.972,9.437 7.73,10.053 c -0.242,0.615 -2.834,1.76 -3.61,1.75 -0.776,-0.012 -5.269,-0.074 -5.915,-0.041 -0.646,0.033 -1.483,0.112 -1.505,0.176 -0.022,0.063 -0.464,0.134 -0.775,0.134 -0.311,0 -0.617,-0.017 -0.68,-0.04 -0.063,-0.022 -0.809,-0.233 -1.634,-0.262 0,0 -1.891,-0.068 -2.271,-0.068 -0.71,0 -2.271,0.062 -2.271,0.062 -0.825,0.032 -1.517,0.11 -1.539,0.174 -0.022,0.063 -0.408,0.134 -0.65,0.134 -0.242,0 -0.524,-0.056 -0.625,-0.125 -0.102,-0.068 -0.383,-0.125 -0.625,-0.125 -0.242,0 -0.845,-0.15 -1.34,-0.335 -0.495,-0.184 -1.11,-2.349 -1.11,-3.174 v -45.09 c 0,-0.826 0.023,-1.699 0.05,-1.94 0.027,-0.242 0.677,-0.918 1.26,-1.502 0,0 0.32,-0.319 3.08,-0.319 h 0.13 c 0.209,-0.138 0.661,-0.25 1.005,-0.25 0.344,0 0.654,0.009 0.69,0.02 0.036,0.011 0.418,0.163 0.85,0.225 0.432,0.064 1.171,0.577 1.41,0.971 0.239,0.392 0.435,3.838 0.435,4.184 0,0.347 0.058,0.713 0.13,0.816 0.072,0.101 0.13,0.58 0.13,1.064 0,0.485 -0.058,0.965 -0.13,1.07 -0.072,0.104 -0.13,0.865 -0.13,1.69 v 3.65 c 0,0.826 0.058,1.586 0.13,1.69 0.072,0.105 0.13,0.556 0.13,1.006 0,0.447 -0.058,0.9 -0.13,1.004 -0.072,0.105 -0.13,0.415 -0.13,0.69 0,0.275 0.011,0.529 0.025,0.565 0.014,0.036 0.256,0.465 0.44,0.956 0.184,0.489 1.949,1.044 2.284,0.49 0.335,-0.557 2.506,-8.017 2.699,-8.82 z"
             inkscape:connector-curvature="0" />
        </g>
      </g>
    </g>
  </g>
</svg>
